<svg width="180" height="41" viewBox="0 0 180 41" fill="none" xmlns="http://www.w3.org/2000/svg">
<path d="M152.63 12.2971H146.593C146.593 12.2285 146.319 12.5029 146.319 12.5029C146.113 12.7087 145.907 13.0517 145.907 13.6005C145.907 14.1492 146.045 14.5608 146.936 14.9038C147.142 14.9724 147.416 15.041 147.691 15.1096C147.897 15.1096 148.102 15.1782 148.445 15.2468C148.583 15.2468 148.651 15.3154 148.651 15.384C148.651 15.5212 148.788 15.6584 148.788 15.8642V25.3307L139.665 13.7377C138.979 12.8459 138.087 12.3657 137.127 12.3657H134.109L133.628 12.2285L133.354 12.5715C133.148 12.8459 133.011 13.2575 133.011 13.8063C133.011 14.355 133.148 14.6294 133.903 14.9038C134.04 14.9038 134.246 15.041 134.452 15.041C134.657 15.041 134.795 15.1096 135 15.1782C135 15.1782 135.137 15.1782 135.206 15.2468V29.0349C135.206 29.3779 135.069 29.5151 135 29.5837C134.932 29.6523 134.794 29.7209 134.726 29.7209C134.452 29.7209 134.04 29.7209 133.697 29.7209H133.354L133.08 29.8581C132.805 30.1325 132.668 30.4755 132.668 31.0243C132.668 31.573 132.874 32.6706 135.069 32.6706H140.694L141.105 32.8078L141.38 32.4648C141.586 32.1904 141.723 31.7788 141.723 31.3673C141.723 30.9557 141.586 30.4069 140.557 30.1325C140.351 30.1325 140.077 29.9953 139.871 29.9953C139.665 29.9953 139.459 29.9953 139.253 29.8581C138.979 29.8581 138.842 29.6523 138.773 29.2407V19.4313L148.171 31.2987C148.994 32.3276 149.817 32.8764 150.641 32.8764C151.464 32.8764 151.395 32.8764 151.601 32.7392C151.807 32.7392 152.218 32.3962 152.218 31.6416V15.7956C152.218 15.6584 152.218 15.3154 152.424 15.2468H153.796L154.208 15.384L154.482 15.041C154.756 14.7666 154.825 14.355 154.825 13.7377C154.825 13.1203 154.413 12.2971 152.424 12.2971H152.63Z" fill="white"/>
<path d="M168.338 23.546C168.338 21.4881 167.927 19.7731 167.104 18.5384C166.623 17.8524 166.075 17.235 165.32 16.8234C164.566 16.4118 163.605 16.2061 162.439 16.2061C161.273 16.2061 160.107 16.549 158.941 17.235C158.323 17.578 157.774 17.9896 157.294 18.4698C156.745 18.95 156.334 19.5673 155.922 20.2533C155.511 20.9393 155.236 21.6939 155.03 22.517C154.825 23.3402 154.688 24.3006 154.688 25.3295C154.688 27.5933 155.305 29.4454 156.54 30.8173C157.774 32.2579 159.558 32.9439 161.753 32.9439C163.948 32.9439 164.84 32.5323 166.143 31.7777C167.378 31.0231 167.927 30.3372 167.927 29.6512C167.927 28.9652 167.79 28.9652 167.447 28.5536C167.172 28.2792 166.898 28.142 166.623 28.142H166.418L166.212 28.2792C165.252 28.8966 163.948 29.2396 162.302 29.2396C160.655 29.2396 160.518 28.9652 159.901 28.3478C159.284 27.7305 158.872 26.8387 158.803 25.6039L166.692 25.4667C167.721 25.4667 168.27 24.7808 168.27 23.6832V23.546H168.338ZM158.186 23.203C158.392 21.8311 158.735 20.8021 159.352 20.0475C160.038 19.2243 160.93 18.8128 161.959 18.8128C163.88 18.8128 164.771 20.1161 164.703 22.7228L158.186 23.203Z" fill="white"/>
<path d="M179.864 29.1719C179.384 28.2115 178.835 28.2801 178.492 28.4173L177.874 28.6917C177.669 28.6917 177.531 28.8289 177.326 28.8975C177.12 28.8975 176.914 29.0347 176.708 29.0347H175.542V28.8975C175.474 28.8975 175.336 28.4859 175.336 26.771V20.1856H177.326C177.806 20.1856 178.423 20.0484 178.903 19.774C179.658 19.3624 179.795 18.745 179.795 18.3335V17.9219C179.795 17.5789 179.727 17.2359 179.521 16.9615L179.315 16.6185H175.336V14.835C175.336 14.5606 175.336 14.3548 175.405 14.0804C175.405 13.6688 175.268 13.2572 175.062 12.9143C174.788 12.5027 174.376 12.2969 173.964 12.2969C173.553 12.2969 173.416 12.2969 172.935 12.4341H172.387V13.0514C172.318 13.7374 172.181 14.2862 172.044 14.7664C171.563 16.2069 170.878 17.0301 169.78 17.2359C169.574 17.2359 169.025 17.5103 169.025 18.4021C169.025 19.2938 169.163 19.088 169.437 19.431C169.711 19.774 170.123 19.9798 170.603 19.9798H171.083V29.0347C171.083 30.4752 171.495 31.5042 172.249 32.1216C172.592 32.396 173.073 32.6018 173.621 32.6704C174.102 32.6704 174.65 32.8076 175.336 32.8076C176.022 32.8076 176.983 32.6018 177.874 32.1216C178.286 31.9158 178.698 31.6414 179.041 31.367C179.384 31.0926 179.658 30.7496 179.795 30.4752C179.932 30.2009 180.001 29.9265 180.001 29.6521C180.001 29.3777 180.001 29.1719 179.864 29.0347V29.1719Z" fill="white"/>
<path d="M29.1531 30.2017C29.0159 30.2017 28.8101 29.9959 28.6043 29.9273C28.3985 29.9273 28.2613 29.7901 28.0556 29.7901C27.8498 29.7901 27.7812 29.7901 27.7126 29.7901C27.5754 29.7901 27.5068 29.5843 27.5068 29.3099V19.4319C27.5068 18.5401 27.3696 17.8541 27.1638 17.3739C26.958 17.0309 26.7522 16.7566 26.4092 16.5508C26.0662 16.345 25.6546 16.2764 25.0373 16.2764C24.4199 16.2764 23.8025 16.4822 23.0479 16.8251C22.7049 16.9623 22.3619 17.1681 22.0876 17.3739C21.7446 17.5797 21.5388 17.8541 21.333 18.0599C21.0586 18.4029 20.99 18.8145 21.1272 19.2261C21.333 19.912 21.8132 20.1178 22.2248 20.1178H22.3619C22.5677 20.1178 22.7735 19.9806 22.9793 19.9806H23.2537C23.2537 19.9806 23.3909 20.1178 23.3909 20.8038V29.1041C23.3909 29.5843 23.3909 29.7215 23.2537 29.7901C23.2537 29.7901 23.0479 29.7901 22.9793 29.7901H22.6363L22.1562 29.6529L21.8132 30.0645C21.6074 30.3389 21.4702 30.7505 21.4702 31.2306C21.4702 31.9166 21.9504 32.8084 24.0769 32.8084H28.6729L29.0845 32.9456L29.3589 32.6026C29.5647 32.3282 29.7019 31.9166 29.7019 31.505C29.7019 31.0935 29.4275 30.6133 29.1531 30.4075V30.2017Z" fill="white"/>
<path d="M23.7345 15.1087C24.0775 15.2459 24.4204 15.3145 24.7634 15.3145C25.518 15.3145 26.204 15.0401 26.7528 14.5599C27.3015 14.0111 27.5759 13.3937 27.5759 12.6392C27.5759 11.8846 27.3015 11.1986 26.8214 10.7184C26.3412 10.2383 25.7238 9.96387 24.9006 9.96387C24.0775 9.96387 23.4601 10.2383 22.9113 10.7184C22.3625 11.2672 22.0195 11.8846 22.0195 12.6392C22.0195 13.3937 22.2939 14.0797 22.7741 14.5599C23.0485 14.7657 23.3229 14.9715 23.6659 15.1087H23.7345Z" fill="white"/>
<path d="M48.0876 30.2C47.9504 30.0628 47.7446 29.9942 47.5388 29.9256C47.4016 29.9256 47.1959 29.7884 46.9901 29.7884C46.7843 29.7884 46.7157 29.7884 46.6471 29.7884C46.6471 29.7884 46.4413 29.7884 46.4413 29.3082V20.9393C46.4413 19.3615 45.9611 18.1268 45.0693 17.3036C44.6577 16.892 44.109 16.6176 43.5602 16.4804C42.4626 16.1375 41.2279 16.1375 40.0617 16.4804C38.8955 16.8234 37.8666 17.3722 36.8376 18.0582C36.4946 16.4804 35.4657 16.2061 34.8483 16.2061C34.2309 16.2061 33.2705 16.4118 32.516 16.892C32.173 17.0978 31.8986 17.3036 31.6242 17.578C31.3498 17.8524 31.144 18.0582 31.0068 18.264C30.801 18.5384 30.7324 18.8128 30.7324 19.0872C30.7324 19.3615 30.7324 19.6359 31.0754 19.9789C31.0754 20.1161 31.2812 20.1847 31.4184 20.2533C31.6242 20.3905 31.8986 20.3905 32.173 20.2533C32.173 20.2533 32.3788 20.2533 32.516 20.1161H32.6532C32.6532 20.1161 32.7904 20.3905 32.7904 20.9393V29.7884H32.3788L31.8986 29.6512L31.5556 30.0628C31.3498 30.3372 31.2126 30.7487 31.2126 31.2975C31.2126 31.8463 31.3498 31.9149 31.487 32.1207C31.83 32.6009 32.516 32.8067 33.5449 32.8067H38.141L38.5526 32.9439L38.8269 32.6009C39.0327 32.3265 39.1699 31.9149 39.1699 31.5033C39.1699 31.0917 38.8955 30.6116 38.6897 30.4058C38.484 30.2 38.3468 30.2 38.141 30.1314C37.9352 30.1314 37.798 30.1314 37.5922 29.9942C37.455 29.9942 37.3178 29.9942 37.2492 29.9942C37.2492 29.9942 37.0434 29.9942 37.0434 29.514V21.8311C37.455 21.4195 38.0038 21.1451 38.5526 20.8707C38.8955 20.7335 39.3071 20.5963 39.7187 20.4591C40.5419 20.2533 41.2279 20.3219 41.6394 20.4591C42.1196 20.4591 42.3254 21.0765 42.3254 22.1054V30.1314H41.9138L41.4337 29.9942L41.0907 30.4058C40.8849 30.6802 40.7477 31.0917 40.7477 31.6405C40.7477 32.1893 40.8849 32.2579 41.0221 32.4637C41.3651 32.9439 42.051 33.1497 43.08 33.1497H47.676L48.0876 33.2869L48.362 32.9439C48.5678 32.6695 48.705 32.2579 48.705 31.8463C48.705 31.4347 48.4306 30.9545 48.2248 30.7487L48.0876 30.4058V30.2Z" fill="white"/>
<path d="M19.3445 23.8213L19.0015 23.6155C18.6586 23.4097 18.1784 23.2725 17.4238 23.2725C16.6692 23.2725 16.6006 23.2725 16.2576 23.5469L15.846 23.8213V24.37C15.7089 25.2618 15.6403 26.0164 15.5031 26.6338C15.4345 27.1139 15.2973 27.5255 15.0915 27.8685C14.6799 28.4173 13.5823 28.7603 12.0046 28.7603H9.80946C8.91769 28.7603 8.7119 28.7603 8.7119 28.7603C8.7119 28.7603 8.6433 28.6231 8.6433 28.3487V14.3548C8.6433 13.5316 8.84909 13.3258 8.84909 13.2572H9.19208C9.46647 13.2572 9.67226 13.2572 9.94665 13.3944L10.564 13.5316L10.9756 13.0514C11.3186 12.7084 11.4558 12.2283 11.4558 11.6109C11.4558 10.5133 10.8384 10.0331 10.4954 9.82734C10.0153 9.62155 9.53507 9.48435 8.84909 9.48435H1.78354L1.09756 9.20996L0.617379 9.82734C0.342988 10.1703 0.137195 10.7191 0.137195 11.2679C0.137195 11.8167 0.27439 12.0225 0.480183 12.3655C0.823171 12.9142 1.50915 13.12 1.92073 13.1886L2.60671 13.3944C2.8125 13.3944 2.9497 13.5316 3.08689 13.5316C3.22409 13.5316 3.22409 13.5316 3.22409 13.806V28.0057C3.22409 29.0347 2.9497 29.0347 2.60671 29.0347C2.26372 29.0347 1.85214 29.0347 1.64634 29.0347L0.960366 28.8289L0.480183 29.3777C0.205793 29.7206 0 30.2694 0 30.8182C0 31.367 0.137195 31.5728 0.342988 31.9158C0.823171 32.5331 1.64634 32.8761 2.67531 32.8761H18.3156L18.6586 32.396C19.3445 31.4356 19.6875 29.7892 19.6875 27.4569C19.6875 25.1246 19.5503 25.1932 19.3445 24.37V23.9584V23.8213Z" fill="white"/>
<path d="M65.9225 29.1721C65.6481 29.0349 65.4423 28.9663 65.2365 28.9663C65.0307 28.9663 64.8249 29.1035 64.6191 29.1721H64.0703C64.0703 29.1721 63.5216 29.1721 62.1496 27.1142L60.8463 25.262C60.5033 24.7819 60.0917 24.3017 59.7487 23.8901C60.2975 23.4785 60.9148 23.0669 61.4636 22.5181C63.6588 20.5974 64.6877 19.0883 64.6877 17.8535C64.6877 16.6187 64.3447 15.9328 62.0124 15.9328C59.6801 15.9328 60.7091 16.07 60.0917 16.3444C59.7487 16.4815 59.4743 16.6187 59.2685 16.8245C58.8569 17.1675 58.7883 17.5791 58.7883 17.7849C58.7883 17.9907 58.7883 18.3337 58.9941 18.6081L59.1999 18.9511H59.8173C59.8173 19.1569 59.5429 19.4998 59.0627 20.0486C58.7883 20.3916 58.2395 20.8718 57.4164 21.4206L55.6328 22.6553V12.2971C55.6328 11.3367 55.4956 10.6507 55.2898 10.2392C55.1527 9.89618 54.8783 9.62178 54.5353 9.41599C54.1923 9.2102 53.7807 9.1416 53.1633 9.1416C52.5459 9.1416 51.9286 9.3474 51.2426 9.69038C50.8996 9.82758 50.5566 10.0334 50.3508 10.2392C50.0764 10.445 49.8706 10.7193 49.6648 10.9251C49.3905 11.3367 49.3219 11.8169 49.6648 12.2285C49.802 12.3657 49.9392 12.5029 50.0764 12.6401C50.2822 12.7773 50.5566 12.7773 50.8996 12.7087H51.517V29.5837H51.1054L50.6252 29.4465L50.2822 29.8581C50.0764 30.1325 49.9392 30.5441 49.9392 31.0928C49.9392 31.6416 50.0764 31.7102 50.2136 31.916C50.5566 32.3962 51.2426 32.602 52.2716 32.602H56.5932L57.0048 32.7392L57.2792 32.3962C57.485 32.1218 57.6222 31.7102 57.6222 31.2986C57.6222 30.887 57.4164 30.4069 57.142 30.2011C57.0048 30.0639 56.799 29.9953 56.6618 29.9267C56.5246 29.9267 56.3188 29.7895 56.113 29.7895C55.9072 29.7895 55.9072 29.7895 55.8386 29.7895C55.7014 29.7895 55.7014 29.4465 55.7014 29.1721V25.1248C56.0444 25.4678 56.5932 26.1538 57.4164 27.5258L58.4453 29.3093C58.7883 29.9267 59.1999 30.5441 59.6115 31.0242C60.0231 31.573 60.5033 31.9846 60.9834 32.3962C61.5322 32.8078 62.2182 33.0136 63.0414 33.0136C63.8645 33.0136 64.6191 32.6706 65.3737 32.0532C65.6481 31.7788 65.8539 31.5044 66.0597 31.1614C66.2655 30.8184 66.3341 30.5441 66.3341 30.2011C66.3341 29.8581 66.1283 29.4465 65.8539 29.2407L65.9225 29.1721Z" fill="white"/>
<path d="M123.271 38.981C122.242 38.981 121.35 38.981 120.596 38.7066C119.773 38.5695 119.087 38.2951 118.469 37.8835C117.029 37.0603 116.274 35.8255 116.274 34.2478C116.274 32.6701 116.96 31.7097 118.195 30.6807C118.332 30.5435 118.469 30.4749 118.675 30.3377C118.469 29.9262 118.332 29.5146 118.332 29.0344C118.332 28.1426 118.606 27.388 119.224 26.7021C118.126 26.0161 117.44 25.0557 117.029 23.821C116.891 23.2722 116.754 22.7234 116.754 22.0374C116.754 21.3514 116.891 20.7341 117.029 20.1853C117.234 19.6365 117.509 19.0877 117.852 18.6075C118.195 18.1274 118.606 17.7844 119.087 17.4414C119.567 17.0984 120.047 16.824 120.527 16.6182C121.556 16.2066 122.585 16.0008 123.683 16.0008C124.78 16.0008 126.152 16.2752 127.112 16.7554C127.112 16.4124 127.112 16.2066 126.975 16.0694L126.632 15.5892L126.975 15.1777C127.455 14.6289 128.073 14.3545 128.965 14.3545C129.856 14.3545 129.994 14.4917 130.337 14.8347C130.885 15.3149 131.16 15.8636 131.16 16.4124C131.16 16.9612 131.091 17.2356 130.954 17.5786C130.817 17.9216 130.68 18.196 130.474 18.4703C130.199 18.8133 129.925 19.1563 129.582 19.4307C129.788 20.0481 129.925 20.6655 129.925 21.3514C129.925 22.0374 129.719 23.135 129.308 23.9582C128.896 24.7127 128.347 25.3987 127.661 25.9475C126.289 27.0451 124.643 27.5938 122.654 27.5938C120.664 27.5938 122.311 27.5938 122.036 27.5938V27.8682C122.105 27.8682 122.242 28.0054 122.448 28.074C122.791 28.074 123.202 28.2112 123.683 28.2112H124.712C127.661 28.2112 129.651 28.9658 130.611 30.4749C131.023 31.0923 131.228 31.7783 131.228 32.6015C131.228 33.4246 131.091 34.1106 130.817 34.728C130.542 35.3454 130.199 35.8941 129.719 36.3057C129.308 36.7173 128.759 37.1289 128.21 37.4719C127.661 37.8149 127.044 38.0207 126.426 38.2265C125.26 38.638 124.094 38.8438 123.065 38.8438L123.271 38.981ZM121.487 32.1213C120.801 32.6701 120.39 33.2188 120.39 33.8362C120.39 34.4536 120.527 34.6594 121.35 35.0024C122.036 35.2768 122.859 35.4826 123.82 35.4826C124.78 35.4826 125.603 35.3454 126.358 35.0024C127.455 34.5908 127.593 33.9734 127.593 33.4932C127.593 33.013 127.593 32.1899 125.055 32.1899H123.957C122.928 32.1899 122.105 32.1899 121.419 31.9841V32.1213H121.487ZM111.198 32.8073L110.786 32.6701H105.984C104.955 32.6701 104.269 32.4643 103.926 31.9841C103.721 31.7783 103.652 31.5039 103.652 31.1609C103.652 30.6121 103.789 30.2691 103.995 29.9262L104.338 29.5146L104.818 29.6518H105.23V20.8027C105.23 20.2539 105.161 20.0481 105.093 19.9795H104.955C104.818 19.9795 104.681 20.1167 104.612 20.1167C104.338 20.1167 104.064 20.1167 103.858 20.1167C103.721 20.1167 103.652 19.9795 103.515 19.8423C103.24 19.5679 103.172 19.2249 103.172 18.9505C103.172 18.6761 103.24 18.4018 103.446 18.1274C103.583 17.9216 103.789 17.6472 104.064 17.4414C104.338 17.2356 104.612 16.9612 104.955 16.7554C105.71 16.2752 106.533 16.0694 107.288 16.0694C108.042 16.0694 108.934 16.2752 109.277 17.7844C110.237 17.0984 111.198 16.6182 112.227 16.2752C113.256 15.9322 114.147 16.0008 114.765 16.2752C115.108 16.4124 115.382 16.6182 115.588 16.8926C115.931 17.3728 116.137 17.9216 116.137 18.6075C116.137 19.2935 116.137 19.6365 116.068 19.9795C116.068 20.3225 115.931 20.5969 115.862 20.8713C115.657 21.4886 115.519 21.9002 115.245 22.106C114.902 22.449 114.422 22.6548 113.805 22.6548C112.844 22.6548 112.501 22.106 112.501 21.6258C112.501 20.4597 112.501 20.1853 112.433 20.1167C112.433 19.9795 112.364 19.9109 112.364 19.9109C112.021 19.9109 111.747 19.9109 111.472 20.0481C111.198 20.0481 110.923 20.2539 110.718 20.3225C110.237 20.5283 109.894 20.8027 109.551 21.1457V29.103C109.551 29.5146 109.757 29.5832 109.894 29.5832C110.032 29.5832 110.169 29.5832 110.375 29.5832C110.58 29.5832 110.786 29.5832 110.992 29.7204C111.198 29.7204 111.404 29.8576 111.541 29.9947C111.815 30.2005 112.09 30.5435 112.09 31.0923C112.09 31.6411 111.952 31.9155 111.747 32.1899L111.472 32.5329L111.198 32.7387V32.8073ZM123.271 19.2935C121.83 19.2935 121.419 19.9795 121.213 20.5283C121.076 20.8027 121.076 21.2143 121.076 21.6944C121.076 22.1746 121.144 22.5862 121.282 22.9978C121.419 23.3408 121.556 23.6152 121.83 23.8896C122.036 24.0954 122.311 24.3011 122.585 24.3697C123.202 24.5755 123.957 24.5755 124.574 24.3697C124.849 24.3697 125.123 24.164 125.329 23.9582C125.74 23.6152 126.015 23.0664 126.015 22.3118C126.015 21.5572 125.809 20.7341 125.329 20.1167C124.849 19.4993 124.231 19.2249 123.34 19.2249H123.271V19.2935Z" fill="#E65D0F"/>
<path d="M71.2718 27.4561C69.8998 25.8098 69.351 23.6832 69.8312 21.3509C70.38 18.3326 72.5751 15.2457 75.7992 12.9134C77.4455 11.6786 79.2977 10.7869 81.287 10.1009C82.1788 9.82651 83.002 9.55212 83.8937 9.41492L90.3419 5.43626C89.4501 5.29907 88.4898 5.23047 87.4608 5.23047C77.2398 5.23047 67.6361 12.296 66.0583 20.6649C64.9608 26.2899 67.9105 31.0232 72.9867 33.3555L76.691 30.6116C74.4273 30.0628 72.5751 28.9652 71.3404 27.4561" fill="#E65D0F"/>
<path d="M90.0698 24.7122L75.4585 16.2061L75.0469 18.4698C75.0469 18.6756 75.0469 18.8814 75.0469 19.0186V19.2929C75.0469 19.8417 75.1841 20.4591 75.4585 20.9393C75.8015 21.4881 76.213 22.0369 76.8304 22.3798L83.6902 26.3585L78.6826 30.1314L77.7908 30.8173L73.9493 33.6984L73.1947 34.2472L66.8152 39.0491C66.5408 39.2549 66.5408 39.6664 66.8152 39.9408C67.0896 40.2152 67.2954 40.1466 67.5011 39.9408L75.5271 35.0018L76.556 34.3844L82.2496 30.8859L83.9646 29.857L90.3441 25.8783C90.5499 25.7411 90.6871 25.5353 90.6871 25.3295C90.6871 25.1237 90.6185 24.7808 90.3441 24.575" fill="#E65D0F"/>
<path d="M96.7239 12.914C98.0959 14.7662 98.5075 17.0985 97.7529 19.6366C96.9297 22.5863 94.666 25.4674 91.4419 27.5939C89.1782 29.1031 86.5715 30.2006 83.9648 30.6808L77.5166 34.6595C78.4084 34.7967 79.3687 34.8653 80.3291 34.8653C89.727 34.8653 99.1248 28.6229 101.457 20.6656C103.172 14.629 100.428 9.27835 94.8718 6.74023L91.1675 9.48414C93.5684 10.1015 95.4892 11.2677 96.7239 12.8454" fill="white"/>
<path d="M100.975 0.154345C100.77 -0.0514482 100.495 -0.0514482 100.29 0.154345L92.2636 5.09337L91.2346 5.71075L85.541 9.20923L83.8261 10.2382L77.3779 14.2169C77.3779 14.2169 77.2407 14.2855 77.2407 14.3541L77.1035 14.4912V14.697C77.1035 14.9028 77.1035 15.1772 77.2407 15.3144C77.2407 15.383 77.3779 15.4516 77.4465 15.5202L92.0578 24.0263L92.4694 21.7626C92.4694 21.5568 92.538 21.351 92.538 21.2138C92.538 20.4592 92.4008 19.7047 91.9892 19.0187C91.852 18.8129 91.6462 18.5385 91.4404 18.3327C91.2346 18.1269 91.0288 17.9897 90.7544 17.7839L83.8947 13.8053L88.9023 10.0324L89.7941 9.34643L91.3718 8.18027L93.7041 6.46533L94.4587 5.91654L100.838 1.11471C101.113 0.908918 101.113 0.497333 100.838 0.222942" fill="white"/>
</svg>
