<svg width="180" height="42" viewBox="0 0 180 42" fill="none" xmlns="http://www.w3.org/2000/svg">
<g id="Group 56">
<path id="Vector" d="M152.63 13.2367H146.593C146.593 13.1681 146.319 13.4425 146.319 13.4425C146.113 13.6482 145.907 13.9912 145.907 14.54C145.907 15.0888 146.045 15.5004 146.936 15.8434C147.142 15.912 147.416 15.9806 147.691 16.0492C147.897 16.0492 148.102 16.1178 148.445 16.1864C148.583 16.1864 148.651 16.255 148.651 16.3236C148.651 16.4607 148.788 16.5979 148.788 16.8037V26.2702L139.665 14.6772C138.979 13.7854 138.087 13.3053 137.127 13.3053H134.109L133.628 13.1681L133.354 13.5111C133.148 13.7854 133.011 14.197 133.011 14.7458C133.011 15.2946 133.148 15.569 133.903 15.8434C134.04 15.8434 134.246 15.9806 134.452 15.9806C134.657 15.9806 134.795 16.0492 135 16.1178C135 16.1178 135.137 16.1178 135.206 16.1864V29.9745C135.206 30.3175 135.069 30.4547 135 30.5233C134.932 30.5919 134.794 30.6605 134.726 30.6605C134.452 30.6605 134.04 30.6605 133.697 30.6605H133.354L133.08 30.7976C132.805 31.072 132.668 31.415 132.668 31.9638C132.668 32.5126 132.874 33.6102 135.069 33.6102H140.694L141.105 33.7473L141.38 33.4044C141.586 33.13 141.723 32.7184 141.723 32.3068C141.723 31.8952 141.586 31.3464 140.557 31.072C140.351 31.072 140.077 30.9348 139.871 30.9348C139.665 30.9348 139.459 30.9348 139.253 30.7976C138.979 30.7976 138.842 30.5919 138.773 30.1803V20.3708L148.171 32.2382C148.994 33.2672 149.817 33.8159 150.641 33.8159C151.464 33.8159 151.395 33.8159 151.601 33.6788C151.807 33.6788 152.218 33.3358 152.218 32.5812V16.7351C152.218 16.5979 152.218 16.255 152.424 16.1864H153.796L154.208 16.3236L154.482 15.9806C154.756 15.7062 154.825 15.2946 154.825 14.6772C154.825 14.0598 154.413 13.2367 152.424 13.2367H152.63Z" fill="#010156"/>
<path id="Vector_2" d="M168.338 24.485C168.338 22.427 167.927 20.7121 167.104 19.4773C166.623 18.7914 166.075 18.174 165.32 17.7624C164.566 17.3508 163.605 17.145 162.439 17.145C161.273 17.145 160.107 17.488 158.941 18.174C158.323 18.517 157.774 18.9286 157.294 19.4087C156.745 19.8889 156.334 20.5063 155.922 21.1923C155.511 21.8783 155.236 22.6328 155.03 23.456C154.825 24.2792 154.688 25.2395 154.688 26.2685C154.688 28.5322 155.305 30.3844 156.54 31.7563C157.774 33.1969 159.558 33.8828 161.753 33.8828C163.948 33.8828 164.84 33.4713 166.143 32.7167C167.378 31.9621 167.927 31.2761 167.927 30.5902C167.927 29.9042 167.79 29.9042 167.447 29.4926C167.172 29.2182 166.898 29.081 166.623 29.081H166.418L166.212 29.2182C165.252 29.8356 163.948 30.1786 162.302 30.1786C160.655 30.1786 160.518 29.9042 159.901 29.2868C159.284 28.6694 158.872 27.7777 158.803 26.5429L166.692 26.4057C167.721 26.4057 168.27 25.7197 168.27 24.6222V24.485H168.338ZM158.186 24.142C158.392 22.77 158.735 21.7411 159.352 20.9865C160.038 20.1633 160.93 19.7517 161.959 19.7517C163.88 19.7517 164.771 21.0551 164.703 23.6618L158.186 24.142Z" fill="#010156"/>
<path id="Vector_3" d="M179.864 30.1112C179.384 29.1509 178.835 29.2195 178.492 29.3567L177.874 29.6311C177.669 29.6311 177.531 29.7682 177.326 29.8368C177.12 29.8368 176.914 29.974 176.708 29.974H175.542V29.8368C175.474 29.8368 175.336 29.4253 175.336 27.7103V21.1249H177.326C177.806 21.1249 178.423 20.9878 178.903 20.7134C179.658 20.3018 179.795 19.6844 179.795 19.2728V18.8612C179.795 18.5182 179.727 18.1753 179.521 17.9009L179.315 17.5579H175.336V15.7743C175.336 15.4999 175.336 15.2942 175.405 15.0198C175.405 14.6082 175.268 14.1966 175.062 13.8536C174.788 13.442 174.376 13.2362 173.964 13.2362C173.553 13.2362 173.416 13.2362 172.935 13.3734H172.387V13.9908C172.318 14.6768 172.181 15.2256 172.044 15.7057C171.563 17.1463 170.878 17.9695 169.78 18.1753C169.574 18.1753 169.025 18.4496 169.025 19.3414C169.025 20.2332 169.163 20.0274 169.437 20.3704C169.711 20.7134 170.123 20.9192 170.603 20.9192H171.083V29.974C171.083 31.4146 171.495 32.4436 172.249 33.0609C172.592 33.3353 173.073 33.5411 173.621 33.6097C174.102 33.6097 174.65 33.7469 175.336 33.7469C176.022 33.7469 176.983 33.5411 177.874 33.0609C178.286 32.8551 178.698 32.5807 179.041 32.3064C179.384 32.032 179.658 31.689 179.795 31.4146C179.932 31.1402 180.001 30.8658 180.001 30.5914C180.001 30.317 180.001 30.1112 179.864 29.974V30.1112Z" fill="#010156"/>
<path id="Vector_4" d="M29.1531 31.1408C29.0159 31.1408 28.8101 30.935 28.6043 30.8664C28.3985 30.8664 28.2613 30.7292 28.0556 30.7292C27.8498 30.7292 27.7812 30.7292 27.7126 30.7292C27.5754 30.7292 27.5068 30.5234 27.5068 30.249V20.371C27.5068 19.4792 27.3696 18.7932 27.1638 18.313C26.958 17.97 26.7522 17.6957 26.4092 17.4899C26.0662 17.2841 25.6546 17.2155 25.0373 17.2155C24.4199 17.2155 23.8025 17.4213 23.0479 17.7643C22.7049 17.9014 22.3619 18.1072 22.0876 18.313C21.7446 18.5188 21.5388 18.7932 21.333 18.999C21.0586 19.342 20.99 19.7536 21.1272 20.1652C21.333 20.8511 21.8132 21.0569 22.2248 21.0569H22.3619C22.5677 21.0569 22.7735 20.9197 22.9793 20.9197H23.2537C23.2537 20.9197 23.3909 21.0569 23.3909 21.7429V30.0432C23.3909 30.5234 23.3909 30.6606 23.2537 30.7292C23.2537 30.7292 23.0479 30.7292 22.9793 30.7292H22.6363L22.1562 30.592L21.8132 31.0036C21.6074 31.278 21.4702 31.6896 21.4702 32.1697C21.4702 32.8557 21.9504 33.7475 24.0769 33.7475H28.6729L29.0845 33.8847L29.3589 33.5417C29.5647 33.2673 29.7019 32.8557 29.7019 32.4441C29.7019 32.0326 29.4275 31.5524 29.1531 31.3466V31.1408Z" fill="#010156"/>
<path id="Vector_5" d="M23.7345 16.0479C24.0775 16.1851 24.4204 16.2537 24.7634 16.2537C25.518 16.2537 26.204 15.9793 26.7528 15.4991C27.3015 14.9503 27.5759 14.3329 27.5759 13.5784C27.5759 12.8238 27.3015 12.1378 26.8214 11.6576C26.3412 11.1774 25.7238 10.903 24.9006 10.903C24.0775 10.903 23.4601 11.1774 22.9113 11.6576C22.3625 12.2064 22.0195 12.8238 22.0195 13.5784C22.0195 14.3329 22.2939 15.0189 22.7741 15.4991C23.0485 15.7049 23.3229 15.9107 23.6659 16.0479H23.7345Z" fill="#010156"/>
<path id="Vector_6" d="M48.0876 31.1389C47.9504 31.0017 47.7446 30.9331 47.5388 30.8645C47.4016 30.8645 47.1958 30.7273 46.9901 30.7273C46.7843 30.7273 46.7157 30.7273 46.6471 30.7273C46.6471 30.7273 46.4413 30.7273 46.4413 30.2472V21.8783C46.4413 20.3005 45.9611 19.0658 45.0693 18.2426C44.6577 17.831 44.109 17.5566 43.5602 17.4194C42.4626 17.0764 41.2279 17.0764 40.0617 17.4194C38.8955 17.7624 37.8666 18.3112 36.8376 18.9972C36.4946 17.4194 35.4657 17.145 34.8483 17.145C34.2309 17.145 33.2705 17.3508 32.516 17.831C32.173 18.0368 31.8986 18.2426 31.6242 18.517C31.3498 18.7914 31.144 18.9972 31.0068 19.2029C30.801 19.4773 30.7324 19.7517 30.7324 20.0261C30.7324 20.3005 30.7324 20.5749 31.0754 20.9179C31.0754 21.0551 31.2812 21.1237 31.4184 21.1923C31.6242 21.3295 31.8986 21.3295 32.173 21.1923C32.173 21.1923 32.3788 21.1923 32.516 21.0551H32.6532C32.6532 21.0551 32.7904 21.3295 32.7904 21.8783V30.7273H32.3788L31.8986 30.5902L31.5556 31.0017C31.3498 31.2761 31.2126 31.6877 31.2126 32.2365C31.2126 32.7853 31.3498 32.8539 31.487 33.0597C31.83 33.5399 32.516 33.7456 33.5449 33.7456H38.141L38.5526 33.8828L38.8269 33.5398C39.0327 33.2655 39.1699 32.8539 39.1699 32.4423C39.1699 32.0307 38.8955 31.5505 38.6897 31.3447C38.484 31.1389 38.3468 31.1389 38.141 31.0703C37.9352 31.0703 37.798 31.0703 37.5922 30.9331C37.455 30.9331 37.3178 30.9331 37.2492 30.9331C37.2492 30.9331 37.0434 30.9331 37.0434 30.453V22.77C37.455 22.3584 38.0038 22.084 38.5526 21.8097C38.8955 21.6725 39.3071 21.5353 39.7187 21.3981C40.5419 21.1923 41.2279 21.2609 41.6394 21.3981C42.1196 21.3981 42.3254 22.0155 42.3254 23.0444V31.0703H41.9138L41.4337 30.9331L41.0907 31.3447C40.8849 31.6191 40.7477 32.0307 40.7477 32.5795C40.7477 33.1283 40.8849 33.1969 41.0221 33.4027C41.3651 33.8828 42.051 34.0886 43.08 34.0886H47.676L48.0876 34.2258L48.362 33.8828C48.5678 33.6084 48.705 33.1969 48.705 32.7853C48.705 32.3737 48.4306 31.8935 48.2248 31.6877L48.0876 31.3447V31.1389Z" fill="#010156"/>
<path id="Vector_7" d="M19.3445 24.7606L19.0015 24.5548C18.6586 24.349 18.1784 24.2118 17.4238 24.2118C16.6692 24.2118 16.6006 24.2118 16.2576 24.4862L15.846 24.7606V25.3094C15.7089 26.2011 15.6403 26.9557 15.5031 27.5731C15.4345 28.0533 15.2973 28.4649 15.0915 28.8078C14.6799 29.3566 13.5823 29.6996 12.0046 29.6996H9.80946C8.91769 29.6996 8.7119 29.6996 8.7119 29.6996C8.7119 29.6996 8.6433 29.5624 8.6433 29.288V15.2941C8.6433 14.4709 8.84909 14.2652 8.84909 14.1966H9.19208C9.46647 14.1966 9.67226 14.1966 9.94665 14.3337L10.564 14.4709L10.9756 13.9908C11.3186 13.6478 11.4558 13.1676 11.4558 12.5502C11.4558 11.4526 10.8384 10.9725 10.4954 10.7667C10.0153 10.5609 9.53507 10.4237 8.84909 10.4237H1.78354L1.09756 10.1493L0.617379 10.7667C0.342988 11.1097 0.137195 11.6584 0.137195 12.2072C0.137195 12.756 0.27439 12.9618 0.480183 13.3048C0.823171 13.8536 1.50915 14.0594 1.92073 14.128L2.60671 14.3337C2.8125 14.3337 2.9497 14.4709 3.08689 14.4709C3.22409 14.4709 3.22409 14.4709 3.22409 14.7453V28.945C3.22409 29.974 2.9497 29.974 2.60671 29.974C2.26372 29.974 1.85214 29.974 1.64634 29.974L0.960366 29.7682L0.480183 30.317C0.205793 30.66 0 31.2088 0 31.7575C0 32.3063 0.137195 32.5121 0.342988 32.8551C0.823171 33.4725 1.64634 33.8155 2.67531 33.8155H18.3156L18.6586 33.3353C19.3445 32.3749 19.6875 30.7286 19.6875 28.3963C19.6875 26.0639 19.5503 26.1325 19.3445 25.3094V24.8978V24.7606Z" fill="#010156"/>
<path id="Vector_8" d="M65.9225 30.1117C65.6481 29.9745 65.4423 29.9059 65.2365 29.9059C65.0307 29.9059 64.8249 30.0431 64.6191 30.1117H64.0703C64.0703 30.1117 63.5216 30.1117 62.1496 28.0538L60.8463 26.2016C60.5033 25.7214 60.0917 25.2413 59.7487 24.8297C60.2975 24.4181 60.9148 24.0065 61.4636 23.4577C63.6588 21.537 64.6877 20.0278 64.6877 18.7931C64.6877 17.5583 64.3447 16.8723 62.0124 16.8723C59.6801 16.8723 60.7091 17.0095 60.0917 17.2839C59.7487 17.4211 59.4743 17.5583 59.2685 17.7641C58.8569 18.1071 58.7883 18.5187 58.7883 18.7245C58.7883 18.9303 58.7883 19.2733 58.9941 19.5476L59.1999 19.8906H59.8173C59.8173 20.0964 59.5429 20.4394 59.0627 20.9882C58.7883 21.3312 58.2395 21.8114 57.4164 22.3602L55.6328 23.5949V13.2367C55.6328 12.2763 55.4956 11.5903 55.2898 11.1787C55.1527 10.8358 54.8783 10.5614 54.5353 10.3556C54.1923 10.1498 53.7807 10.0812 53.1633 10.0812C52.5459 10.0812 51.9286 10.287 51.2426 10.63C50.8996 10.7672 50.5566 10.9729 50.3508 11.1787C50.0764 11.3845 49.8706 11.6589 49.6648 11.8647C49.3905 12.2763 49.3219 12.7565 49.6648 13.1681C49.802 13.3053 49.9392 13.4425 50.0764 13.5797C50.2822 13.7169 50.5566 13.7169 50.8996 13.6483H51.517V30.5233H51.1054L50.6252 30.3861L50.2822 30.7977C50.0764 31.072 49.9392 31.4836 49.9392 32.0324C49.9392 32.5812 50.0764 32.6498 50.2136 32.8556C50.5566 33.3358 51.2426 33.5416 52.2716 33.5416H56.5932L57.0048 33.6788L57.2792 33.3358C57.485 33.0614 57.6222 32.6498 57.6222 32.2382C57.6222 31.8266 57.4164 31.3464 57.142 31.1406C57.0048 31.0034 56.799 30.9349 56.6618 30.8663C56.5246 30.8663 56.3188 30.7291 56.113 30.7291C55.9072 30.7291 55.9072 30.7291 55.8386 30.7291C55.7014 30.7291 55.7014 30.3861 55.7014 30.1117V26.0644C56.0444 26.4074 56.5932 27.0934 57.4164 28.4653L58.4453 30.2489C58.7883 30.8663 59.1999 31.4836 59.6115 31.9638C60.0231 32.5126 60.5033 32.9242 60.9834 33.3358C61.5322 33.7474 62.2182 33.9531 63.0414 33.9531C63.8645 33.9531 64.6191 33.6102 65.3737 32.9928C65.6481 32.7184 65.8539 32.444 66.0597 32.101C66.2655 31.758 66.3341 31.4836 66.3341 31.1406C66.3341 30.7977 66.1283 30.3861 65.8539 30.1803L65.9225 30.1117Z" fill="#010156"/>
<path id="Vector_9" d="M123.271 39.9199C122.242 39.9199 121.35 39.9199 120.596 39.6455C119.773 39.5083 119.087 39.2339 118.469 38.8223C117.029 37.9991 116.274 36.7644 116.274 35.1866C116.274 33.6089 116.96 32.6485 118.195 31.6196C118.332 31.4824 118.469 31.4138 118.675 31.2766C118.469 30.865 118.332 30.4534 118.332 29.9732C118.332 29.0814 118.606 28.3269 119.224 27.6409C118.126 26.9549 117.44 25.9945 117.029 24.7598C116.891 24.211 116.754 23.6622 116.754 22.9763C116.754 22.2903 116.891 21.6729 117.029 21.1241C117.234 20.5753 117.509 20.0266 117.852 19.5464C118.195 19.0662 118.606 18.7232 119.087 18.3802C119.567 18.0372 120.047 17.7628 120.527 17.557C121.556 17.1455 122.585 16.9397 123.683 16.9397C124.78 16.9397 126.152 17.2141 127.112 17.6942C127.112 17.3513 127.112 17.1455 126.975 17.0083L126.632 16.5281L126.975 16.1165C127.455 15.5677 128.073 15.2933 128.965 15.2933C129.856 15.2933 129.994 15.4305 130.337 15.7735C130.885 16.2537 131.16 16.8025 131.16 17.3513C131.16 17.9 131.091 18.1744 130.954 18.5174C130.817 18.8604 130.68 19.1348 130.474 19.4092C130.199 19.7522 129.925 20.0952 129.582 20.3695C129.788 20.9869 129.925 21.6043 129.925 22.2903C129.925 22.9763 129.719 24.0738 129.308 24.897C128.896 25.6516 128.347 26.3375 127.661 26.8863C126.289 27.9839 124.643 28.5327 122.654 28.5327C120.664 28.5327 122.311 28.5327 122.036 28.5327V28.8071C122.105 28.8071 122.242 28.9442 122.448 29.0128C122.791 29.0128 123.202 29.15 123.683 29.15H124.712C127.661 29.15 129.651 29.9046 130.611 31.4138C131.023 32.0311 131.228 32.7171 131.228 33.5403C131.228 34.3635 131.091 35.0494 130.817 35.6668C130.542 36.2842 130.199 36.833 129.719 37.2446C129.308 37.6561 128.759 38.0677 128.21 38.4107C127.661 38.7537 127.044 38.9595 126.426 39.1653C125.26 39.5769 124.094 39.7827 123.065 39.7827L123.271 39.9199ZM121.487 33.0601C120.801 33.6089 120.39 34.1577 120.39 34.775C120.39 35.3924 120.527 35.5982 121.35 35.9412C122.036 36.2156 122.859 36.4214 123.82 36.4214C124.78 36.4214 125.603 36.2842 126.358 35.9412C127.455 35.5296 127.593 34.9122 127.593 34.4321C127.593 33.9519 127.593 33.1287 125.055 33.1287H123.957C122.928 33.1287 122.105 33.1287 121.419 32.9229V33.0601H121.487ZM111.198 33.7461L110.786 33.6089H105.984C104.955 33.6089 104.269 33.4031 103.926 32.9229C103.721 32.7171 103.652 32.4427 103.652 32.0997C103.652 31.551 103.789 31.208 103.995 30.865L104.338 30.4534L104.818 30.5906H105.23V21.7415C105.23 21.1927 105.161 20.9869 105.093 20.9183H104.955C104.818 20.9183 104.681 21.0555 104.612 21.0555C104.338 21.0555 104.064 21.0555 103.858 21.0555C103.721 21.0555 103.652 20.9183 103.515 20.7811C103.24 20.5067 103.172 20.1638 103.172 19.8894C103.172 19.615 103.24 19.3406 103.446 19.0662C103.583 18.8604 103.789 18.586 104.064 18.3802C104.338 18.1744 104.612 17.9 104.955 17.6942C105.71 17.2141 106.533 17.0083 107.288 17.0083C108.042 17.0083 108.934 17.2141 109.277 18.7232C110.237 18.0372 111.198 17.557 112.227 17.2141C113.256 16.8711 114.147 16.9397 114.765 17.2141C115.108 17.3512 115.382 17.557 115.588 17.8314C115.931 18.3116 116.137 18.8604 116.137 19.5464C116.137 20.2324 116.137 20.5753 116.068 20.9183C116.068 21.2613 115.931 21.5357 115.862 21.8101C115.657 22.4275 115.519 22.8391 115.245 23.0449C114.902 23.3878 114.422 23.5936 113.805 23.5936C112.844 23.5936 112.501 23.0449 112.501 22.5647C112.501 21.3985 112.501 21.1241 112.433 21.0555C112.433 20.9183 112.364 20.8497 112.364 20.8497C112.021 20.8497 111.747 20.8497 111.472 20.9869C111.198 20.9869 110.923 21.1927 110.718 21.2613C110.237 21.4671 109.894 21.7415 109.551 22.0845V30.0418C109.551 30.4534 109.757 30.522 109.894 30.522C110.032 30.522 110.169 30.522 110.375 30.522C110.58 30.522 110.786 30.522 110.992 30.6592C111.198 30.6592 111.404 30.7964 111.541 30.9336C111.815 31.1394 112.09 31.4824 112.09 32.0311C112.09 32.5799 111.952 32.8543 111.747 33.1287L111.472 33.4717L111.198 33.6775V33.7461ZM123.271 20.2324C121.83 20.2324 121.419 20.9183 121.213 21.4671C121.076 21.7415 121.076 22.1531 121.076 22.6333C121.076 23.1135 121.144 23.525 121.282 23.9366C121.419 24.2796 121.556 24.554 121.83 24.8284C122.036 25.0342 122.311 25.24 122.585 25.3086C123.202 25.5144 123.957 25.5144 124.574 25.3086C124.849 25.3086 125.123 25.1028 125.329 24.897C125.74 24.554 126.015 24.0052 126.015 23.2506C126.015 22.4961 125.809 21.6729 125.329 21.0555C124.849 20.4381 124.231 20.1638 123.34 20.1638H123.271V20.2324Z" fill="#E65D0F"/>
<path id="Vector_10" d="M71.2718 28.3955C69.8998 26.7492 69.351 24.6227 69.8312 22.2903C70.38 19.2721 72.5751 16.1852 75.7992 13.8528C77.4455 12.6181 79.2977 11.7263 81.287 11.0403C82.1788 10.7659 83.002 10.4916 83.8937 10.3544L90.3419 6.3757C89.4501 6.23851 88.4898 6.16991 87.4608 6.16991C77.2398 6.16991 67.6361 13.2355 66.0583 21.6044C64.9608 27.2294 67.9105 31.9626 72.9867 34.2949L76.691 31.551C74.4273 31.0022 72.5751 29.9047 71.3404 28.3955" fill="#E65D0F"/>
<path id="Vector_11" d="M90.0698 25.6511L75.4585 17.145L75.0469 19.4087C75.0469 19.6145 75.0469 19.8203 75.0469 19.9575V20.2319C75.0469 20.7807 75.1841 21.3981 75.4585 21.8783C75.8015 22.427 76.213 22.9758 76.8304 23.3188L83.6902 27.2975L78.6826 31.0703L77.7908 31.7563L73.9493 34.6374L73.1947 35.1862L66.8152 39.988C66.5408 40.1938 66.5408 40.6054 66.8152 40.8798C67.0896 41.1542 67.2954 41.0856 67.5011 40.8798L75.5271 35.9408L76.556 35.3234L82.2496 31.8249L83.9646 30.7959L90.3441 26.8173C90.5499 26.6801 90.6871 26.4743 90.6871 26.2685C90.6871 26.0627 90.6185 25.7197 90.3441 25.5139" fill="#E65D0F"/>
<path id="Vector_12" d="M96.7239 13.8536C98.0959 15.7058 98.5075 18.0381 97.7529 20.5762C96.9297 23.5259 94.666 26.407 91.4419 28.5335C89.1782 30.0427 86.5715 31.1402 83.9648 31.6204L77.5166 35.5991C78.4084 35.7363 79.3687 35.8049 80.3291 35.8049C89.727 35.8049 99.1248 29.5625 101.457 21.6052C103.172 15.5686 100.428 10.218 94.8718 7.67984L91.1675 10.4237C93.5684 11.0411 95.4892 12.2073 96.7239 13.785" fill="#010156"/>
<path id="Vector_13" d="M100.975 1.09362C100.77 0.887824 100.495 0.887824 100.29 1.09362L92.2636 6.03265L91.2346 6.65002L85.541 10.1485L83.8261 11.1775L77.3779 15.1561C77.3779 15.1561 77.2407 15.2247 77.2407 15.2933L77.1035 15.4305V15.6363C77.1035 15.8421 77.1035 16.1165 77.2407 16.2537C77.2407 16.3223 77.3779 16.3909 77.4465 16.4595L92.0578 24.9656L92.4694 22.7019C92.4694 22.4961 92.538 22.2903 92.538 22.1531C92.538 21.3985 92.4008 20.6439 91.9892 19.958C91.852 19.7522 91.6462 19.4778 91.4404 19.272C91.2346 19.0662 91.0288 18.929 90.7544 18.7232L83.8947 14.7445L88.9023 10.9717L89.7941 10.2857L91.3718 9.11954L93.7041 7.4046L94.4587 6.85582L100.838 2.05398C101.113 1.84819 101.113 1.43661 100.838 1.16221" fill="#010156"/>
</g>
</svg>
